# xmcd CD database file
#
# Track frame offsets:
#	150
#	17450
#	42586
#	64878
#	86752
#	107557
#	130813
#	148094
#
# Disc length: 2263 seconds
#
# Revision: 0
# Processed by: cddbd v1.5.1PL0 Copyright (c) Steve Scherf et al.
# Submitted via: CDex 1.51
#
DISCID=6c08d508
DTITLE=Herbie Mann - Waterbed
DYEAR=1975
DGENRE=Jazz
TTITLE0=Waterbed
TTITLE1=Comin Home Baby
TTITLE2=Paradise Music
TTITLE3=Bang! Bang!
TTITLE4=Deus Xango
TTITLE5=Violet Don't Be Blue
TTITLE6=I Got A Woman
TTITLE7=Body Oil
EXTD=YEAR: 1975
EXTT0=
EXTT1=
EXTT2=
EXTT3=
EXTT4=
EXTT5=
EXTT6=
EXTT7=
PLAYORDER=
